:SAMPLES-PER-SECOND 30
:FULLY-SPECIFIED
:DEGREES
391
root  -12.1788 32.5668 -8.03525 -145.003 -85.3158 149.099
RightUpLeg  -7.33337 3.47039 -15.058
RightLeg  37.7607 7.33619 4.91857
RightFoot  -6.25009 -0.071411 -0.811043
RightToes  -59.7454 -0.392145 -0.397557
Spine  -0.996806 -2.21508 -2.36687
Spine1  -1.85655 -4.19554 -4.11245
HEad  -59.1292 -40.9726 3.28742
LeftShoulder1  -1.94126e-019 -3.10601e-018 -2.51263e-017
LeftArm  -1.41405 -21.0769 -69.7599
LeftForeArm  34.1815 -48.9071 -10.3429
LeftHand  -0.642931 -1.76784 10.6047
RightShoulder  -4.96962e-017 0 -2.36833e-017
RightArm  -32.9557 -22.4083 66.0732
RightForeArm  45.4189 38.8087 6.22633
RightHand  -0.393648 -2.0111 -13.3312
LeftUpLeg  -23.1223 6.1052 9.00509
LeftLeg  32.8966 -1.26018 -0.709725
LeftFoot  3.34295 0.000768412 0.135181
LeftToes  -43.6923 1.9075e-006 4.29692e-008
392
root  -13.0889 32.5735 -6.70318 -155.129 -81.0753 158.924
RightUpLeg  -13.0753 -0.356676 -18.2626
RightLeg  46.8963 4.2897 3.98111
RightFoot  2.47377 0.001558 0.41302
RightToes  -65.2842 -0.444979 -0.409513
Spine  -0.752906 -1.61821 -2.52309
Spine1  -1.39297 -3.01487 -4.44539
HEad  -57.2968 -42.4082 0.63365
LeftShoulder1  -1.94126e-019 -3.10601e-018 -2.51263e-017
LeftArm  -3.5179 -17.5606 -70.7157
LeftForeArm  35.5525 -49.1517 -10.3388
LeftHand  -0.672836 -1.43687 11.5998
RightShoulder  -4.96962e-017 0 -2.36833e-017
RightArm  -33.9991 -22.5791 66.5098
RightForeArm  46.3544 39.0518 6.23919
RightHand  -0.377988 -2.38693 -14.3518
LeftUpLeg  -20.8581 10.4512 6.20562
LeftLeg  34.1219 -1.26241 -0.74707
LeftFoot  -0.672291 0.000375363 0.225423
LeftToes  -41.5018 1.9075e-006 4.29692e-008
393
root  -13.9129 32.815 -5.67246 -162.323 -76.2116 166.592
RightUpLeg  -20.0456 -2.60996 -18.2496
RightLeg  54.6528 -0.81199 -1.06673
RightFoot  8.31426 0.0396874 -0.00721023
RightToes  -43.1497 -0.244121 -0.332214
Spine  -0.752147 -1.10836 -2.49888
Spine1  -1.42756 -2.02178 -4.40033
HEad  -55.7242 -42.76 -0.993255
LeftShoulder1  -1.94126e-019 -3.10601e-018 -2.51263e-017
LeftArm  -5.71337 -11.3328 -70.8065
LeftForeArm  34.6158 -49.9686 -10.7463
LeftHand  -0.720747 -0.951285 13.3208
RightShoulder  -4.96962e-017 0 -2.36833e-017
RightArm  -34.1115 -22.8624 68.1866
RightForeArm  47.128 37.8429 5.86496
RightHand  -0.38996 -2.42464 -15.0028
LeftUpLeg  -18.7116 12.5846 4.43938
LeftLeg  33.6004 1.53502 0.877936
LeftFoot  -2.60965 -0.00113506 0.111666
LeftToes  -38.7781 1.9075e-006 4.29692e-008
394
root  -14.7795 33.2202 -4.81404 -165.371 -72.9646 170.15
RightUpLeg  -24.6934 -6.09017 -16.0458
RightLeg  58.2503 -5.24653 -7.39992
RightFoot  5.48684 0.0586081 -0.646861
RightToes  -26.1011 -0.118015 -0.223975
Spine  -0.805689 -1.31613 -2.41681
Spine1  -1.54942 -2.48772 -4.1985
HEad  -54.8745 -42.4438 -1.58286
LeftShoulder1  -1.94126e-019 -3.10601e-018 -2.51263e-017
LeftArm  -7.34392 -3.73938 -71.1153
LeftForeArm  32.8087 -48.6633 -10.3244
LeftHand  -0.757031 -0.571423 14.8383
RightShoulder  -4.96962e-017 0 -2.36833e-017
RightArm  -33.7575 -24.0762 70.5587
RightForeArm  48.4247 36.1588 5.35764
RightHand  -0.452917 -1.84774 -14.6814
LeftUpLeg  -16.0447 12.2623 2.84238
LeftLeg  30.9612 5.28094 2.71269
LeftFoot  -2.92781 -0.00739456 -0.127838
LeftToes  -36.0105 1.9075e-006 4.29692e-008
395
root  -15.6793 33.6716 -4.13864 -169.331 -70.7749 174.61
RightUpLeg  -27.2577 -10.1736 -11.783
RightLeg  57.9798 -6.30776 -8.76553
RightFoot  3.05897 0.0247307 -0.351085
RightToes  -26.8072 -0.122564 -0.229174
Spine  -0.817646 -1.76338 -2.06283
Spine1  -1.58399 -3.4325 -3.44995
HEad  -55.2596 -41.9965 -0.761596
LeftShoulder1  -1.94126e-019 -3.10601e-018 -2.51263e-017
LeftArm  -8.644 3.58692 -72.5203
LeftForeArm  30.9921 -44.0447 -8.7149
LeftHand  -0.757159 -0.744014 14.4378
RightShoulder  -4.96962e-017 0 -2.36833e-017
RightArm  -33.5624 -26.2144 72.4422
RightForeArm  51.0502 33.7795 4.64053
RightHand  -0.584133 0.0804281 -12.4428
LeftUpLeg  -12.8042 10.3984 2.19243
LeftLeg  27.1052 9.48224 4.07828
LeftFoot  -2.71327 -0.0117135 -0.333078
LeftToes  -32.3548 1.9075e-006 4.29692e-008
396
root  -16.5181 34.0474 -3.63098 -173.191 -68.6936 179.316
RightUpLeg  -29.4024 -13.7174 -6.01899
RightLeg  55.6639 -5.48404 -7.03423
RightFoot  2.97511 0.0142144 -0.263766
RightToes  -25.221 -0.121566 -0.230627
Spine  -0.858192 -2.20655 -1.56817
Spine1  -1.68007 -4.37505 -2.41934
HEad  -56.3809 -41.4404 1.47907
LeftShoulder1  -1.94126e-019 -3.10601e-018 -2.51263e-017
LeftArm  -9.74565 10.0056 -74.3897
LeftForeArm  29.006 -37.1142 -6.70276
LeftHand  -0.650466 -1.03468 11.8907
RightShoulder  -4.96962e-017 0 -2.36833e-017
RightArm  -33.781 -28.6785 73.6472
RightForeArm  53.8848 30.8031 3.82653
RightHand  -0.615206 2.27585 -9.50217
LeftUpLeg  -10.0587 9.16035 2.12997
LeftLeg  23.3782 13.136 4.64775
LeftFoot  -2.46065 -0.0133655 -0.460782
LeftToes  -28.9154 1.9075e-006 4.29692e-008
397
root  -17.2992 34.2514 -3.16555 -174.285 -66.6493 -178.503
RightUpLeg  -31.8921 -17.4832 -0.187108
RightLeg  53.0094 -4.37988 -5.13497
RightFoot  3.63365 0.0132068 -0.2615
RightToes  -26.4199 -0.118049 -0.230072
Spine  -0.88966 -2.78822 -1.40573
Spine1  -1.74186 -5.59377 -2.04736
HEad  -58.4218 -40.2794 5.70093
LeftShoulder1  -1.94126e-019 -3.10601e-018 -2.51263e-017
LeftArm  -10.4551 15.293 -75.3611
LeftForeArm  28.4947 -29.2499 -4.75089
LeftHand  -0.436058 -2.59191 6.56089
RightShoulder  -4.96962e-017 0 -2.36833e-017
RightArm  -35.0215 -30.7336 74.8883
RightForeArm  55.0679 26.8261 2.93221
RightHand  -0.54251 3.00816 -7.72193
LeftUpLeg  -7.97466 9.33796 1.4934
LeftLeg  19.8129 15.377 4.38284
LeftFoot  -2.44943 -0.0153534 -0.55661
LeftToes  -26.203 1.9075e-006 4.29692e-008
398
root  -18.0187 34.2869 -2.72795 -173.903 -64.7165 -177.905
RightUpLeg  -34.4084 -21.5022 5.64966
RightLeg  50.4808 -3.97107 -4.26581
RightFoot  4.54036 0.018928 -0.324861
RightToes  -26.4709 -0.114263 -0.226705
Spine  -0.809032 -3.45412 -1.5859
Spine1  -1.55379 -6.98255 -2.36134
HEad  -60.9189 -38.8273 11.3292
LeftShoulder1  -1.94126e-019 -3.10601e-018 -2.51263e-017
LeftArm  -12.9312 18.8571 -75.4384
LeftForeArm  30.4352 -19.3165 -3.12732
LeftHand  -0.297137 -5.46361 3.49399
RightShoulder  -4.96962e-017 0 -2.36833e-017
RightArm  -37.6806 -32.4662 76.2954
RightForeArm  54.8057 21.7657 1.94618
RightHand  -0.519248 2.29905 -8.03135
LeftUpLeg  -6.68034 11.3442 0.517895
LeftLeg  17.4194 15.5712 3.75218
LeftFoot  -3.1405 -0.0251385 -0.755461
LeftToes  -23.7619 1.9075e-006 4.29692e-008
399
root  -18.6879 34.1396 -2.34178 -173.241 -62.8839 -177.806
RightUpLeg  -36.7955 -26.0952 11.8839
RightLeg  48.0881 -5.05387 -4.97192
RightFoot  4.39718 0.030398 -0.460162
RightToes  -25.2248 -0.112458 -0.217446
Spine  -0.675591 -4.06541 -1.99749
Spine1  -1.21146 -8.32705 -3.12983
HEad  -63.7561 -37.5034 17.3252
LeftShoulder1  -1.94126e-019 -3.10601e-018 -2.51263e-017
LeftArm  -17.0956 21.4206 -74.5825
LeftForeArm  27.3267 -9.54602 -1.67285
LeftHand  -0.476979 -5.94518 5.21003
RightShoulder  -4.96962e-017 0 -2.36833e-017
RightArm  -41.9832 -34.2387 77.3556
RightForeArm  54.0284 16.0747 1.08428
RightHand  -0.569192 1.78395 -9.37368
LeftUpLeg  -6.5545 13.5152 -0.462293
LeftLeg  17.7029 14.966 3.68736
LeftFoot  -5.10447 -0.0633011 -1.2585
LeftToes  -21.625 1.9075e-006 4.29692e-008
400
root  -19.3459 33.8605 -1.98689 -172.633 -61.1627 -177.725
RightUpLeg  -38.7603 -30.9763 18.357
RightLeg  44.9785 -6.00276 -5.28042
RightFoot  3.78556 0.0370042 -0.536013
RightToes  -25.6049 -0.114856 -0.220289
Spine  -0.66394 -4.35208 -2.45639
Spine1  -1.03801 -9.06596 -3.95723
HEad  -66.822 -37.2087 21.7848
LeftShoulder1  -1.94126e-019 -3.10601e-018 -2.51263e-017
LeftArm  -23.3195 24.4805 -73.1311
LeftForeArm  20.925 -6.199 -1.0715
LeftHand  -0.613907 -2.90783 8.81777
RightShoulder  -4.96962e-017 0 -2.36833e-017
RightArm  -49.6221 -36.9695 77.4401
RightForeArm  56.6025 12.1289 1.46813
RightHand  -0.538223 0.781545 -10.2273
LeftUpLeg  -7.67766 15.5139 -1.49616
LeftLeg  20.5693 14.6975 4.40158
LeftFoot  -7.84928 -0.14711 -1.9825
LeftToes  -21.302 1.9075e-006 4.29692e-008
401
root  -20.0043 33.5662 -1.66392 -172.059 -59.5804 -177.094
RightUpLeg  -40.0389 -35.3815 24.8339
RightLeg  40.1186 -6.78475 -5.00616
RightFoot  -0.9268 -0.00400689 0.0655934
RightToes  -20.7612 -0.0857426 -0.182914
Spine  -0.927751 -4.38446 -2.66178
Spine1  -1.38416 -9.32896 -4.23657
HEad  -68.6419 -38.2221 23.3109
LeftShoulder1  -1.94126e-019 -3.10601e-018 -2.51263e-017
LeftArm  -31.7012 27.2727 -71.6688
LeftForeArm  17.0221 -5.01052 -0.865152
LeftHand  -0.508598 1.27676 14.318
RightShoulder  -4.96962e-017 0 -2.36833e-017
RightArm  -57.3076 -40.064 76.0512
RightForeArm  59.5521 7.86537 1.33041
RightHand  -0.464158 -0.443393 -10.8986
LeftUpLeg  -9.77335 16.4466 -2.36424
LeftLeg  24.5975 14.5466 5.47953
LeftFoot  -10.9004 -0.285033 -2.82517
LeftToes  -20.2558 1.9075e-006 4.29692e-008
